<svg xmlns="http://www.w3.org/2000/svg" viewBox="0 0 24 24" fill="none" stroke="#1E3A5F" stroke-width="1.6" stroke-linecap="round" stroke-linejoin="round">
  <symbol id="icon-controller" viewBox="0 0 24 24">
    <rect x="3" y="8" width="18" height="8" rx="4" />
    <circle cx="8" cy="12" r="1.2" />
    <circle cx="16" cy="11" r="1.2" />
    <circle cx="18" cy="13" r="1.2" />
  </symbol>
  <symbol id="icon-rewind" viewBox="0 0 24 24">
    <polyline points="10 8 6 12 10 16" />
    <polyline points="18 8 14 12 18 16" />
    <circle cx="12" cy="12" r="8" />
  </symbol>
  <symbol id="icon-code" viewBox="0 0 24 24">
    <polyline points="8 6 3 12 8 18" />
    <polyline points="16 6 21 12 16 18" />
  </symbol>
  <symbol id="icon-shader" viewBox="0 0 24 24">
    <circle cx="12" cy="12" r="8" />
    <path d="M4 12h16" />
    <path d="M12 4c2 2.5 2 11 0 16" />
  </symbol>
  <symbol id="icon-graph" viewBox="0 0 24 24">
    <circle cx="6" cy="6" r="2" />
    <circle cx="18" cy="6" r="2" />
    <circle cx="6" cy="18" r="2" />
    <circle cx="18" cy="18" r="2" />
    <line x1="8" y1="6" x2="16" y2="6" />
    <line x1="6" y1="8" x2="6" y2="16" />
    <line x1="18" y1="8" x2="18" y2="16" />
    <line x1="8" y1="18" x2="16" y2="18" />
  </symbol>
</svg>
